<mxfile host="app.diagrams.net" modified="2024-05-28T15:49:13.194Z" agent="Mozilla/5.0 (Windows NT 10.0; Win64; x64; rv:126.0) Gecko/20100101 Firefox/126.0" version="24.4.4" etag="nsS0_eZ6Dm9WriKqXySU" type="github">
  <diagram name="Strona-1" id="ib7Db77N-udwibbMO4UI">
    <mxGraphModel>
      <root>
        <mxCell id="0" />
        <mxCell id="1" parent="0" />
      </root>
    </mxGraphModel>
  </diagram>
</mxfile>
